<?xml version="1.0" encoding="UTF-8"?>
<svg id="Layer_2" data-name="Layer 2" xmlns="http://www.w3.org/2000/svg" viewBox="0 0 583.58 478.58">
  <defs>
    <style>
      .cls-1 {
        fill: #06410c;
      }

      .cls-2 {
        fill: none;
      }

      .cls-3 {
        fill: #05410b;
      }

      .cls-4 {
        font-family: HighTowerText-Reg, 'High Tower Text';
        font-size: 263.34px;
      }

      .cls-4, .cls-5 {
        fill: #333;
      }
    </style>
  </defs>
  <g id="Layer_2-2" data-name="Layer 2">
    <g>
      <path class="cls-1" d="M408.2,137.05c-.76,19.08-27.95,12.69-38.29,19.73-8.13-22.87,9.05-14.2,32.91-22.32,3.47-.67,5.1-1.7,5.38,2.59Z"/>
      <path class="cls-1" d="M470.4,210.65c-8.13,12.84-29.74-.2-48,5.92-9.67,2.89-10.3-8.96-.68-11.46,14.12-.2,3.75-142.34,6.76-152.18,2.03-19.85-8.65-21.73-17-31.7,2.06-5.79,39.29-33.53,37.09-14.87-1.58,28.04-.09,149.12-.25,180.17-2.43,20.26,16.39,13.5,22.08,24.11Z"/>
      <path class="cls-1" d="M576.62,205.12c-7.7,14.17-29.95,22.44-38.44,4.55-17.07,12.72-57.93,23.48-57.67-16.68-4.77-26.08,38.38-26.97,57.68-45.94,1.7-17.37-1.23-35.91-17.74-34.59-8.36,3.59-27.52,45.23-33.99,13.8,9.23-26.55,73.32-45.53,70.57,2.13,2.58,8.04-7.52,74.51,6.32,72.34,4.23.42,13.85-5.66,13.27,4.4ZM538.42,170.54c-7.7-17.19-41.14,10.64-36.21,18.35-2.45,23.06,30.77,21.5,35.97,6.53,0,0,.25-24.87.25-24.87Z"/>
    </g>
    <g>
      <g>
        <path class="cls-3" d="M170.71,154.1c-17.04,30.13-90.45,67.92-112.66,28.31-20.76-37.01,46.5-75.89,79.83-70.04,6.65,1.17,21.93,12.42,20.94-1.53-.4-5.67-24.66-27.54-32.22-28.43-30.53-3.61-62.07,1.35-84.51,23.51-39.6,39.1-9.69,89.94,30.66,112.81,34.98,19.82,69.06,14.86,97.95-12.6v53.98"/>
        <path class="cls-3" d="M211.91,115.82V38.28L175.61,0H0v39.26h170.71v114.84"/>
        <path class="cls-5" d="M211.91,172.22c16.47-22.1,52.85-60.7,83.25-56.29,8.48,1.23,18.52,10.86,20.33,18.95,8.23,36.69-32.16,73.08-66.31,75.17-2.96,2.84,17.37,32.54,22.67,33.4,22.03,3.59,61.2-29.59,70.61-49.04,24.63-50.87-43.23-129.75-96.57-104.47l-33.98,25.88"/>
        <path class="cls-1" d="M372.8,0v39.26h-138.33c-8.76-11.19-23.13-22.55-31.41-33.36-1.51-1.98-3.78-2.48-2.93-5.9h172.67Z"/>
      </g>
      <path class="cls-5" d="M211.91,115.82c0,98.12,0,196.24,0,294.36h-41.2V154.1"/>
      <path class="cls-3" d="M170.71,154.1V39.26h41.2c0,25.52,0,51.04,0,76.56"/>
    </g>
    <text class="cls-4" transform="translate(242.57 408.76)"><tspan x="0" y="0">riti</tspan></text>
    <rect class="cls-2" width="577.66" height="410.18"/>
  </g>
</svg>
